<svg width="125" height="25" viewBox="0 0 125 25" fill="none" xmlns="http://www.w3.org/2000/svg">
<path d="M11.6344 7.40703C9.68956 7.26083 7.74473 7.79687 6.14024 8.9664V0L0.500244 0.194922V2.82636H2.54231V24.1216H6.09162V22.7084C9.88404 25.3886 15.1351 24.5114 17.8578 20.7104C20.5806 16.9095 19.6568 11.6466 15.8644 8.91767C14.6002 8.04052 13.1416 7.55322 11.6344 7.40703ZM14.2113 19.4922L14.503 22.0749L12.1692 20.5642C9.54369 21.2465 6.91818 19.6384 6.23749 17.0557C5.5568 14.4729 7.16128 11.7928 9.73818 11.1105C12.3637 10.4283 14.9892 12.0364 15.6699 14.6191C16.1561 16.3734 15.5727 18.2739 14.2113 19.4922Z" fill="#fff"/>
<path d="M31.2286 24.0743H34.7779V7.55469L29.1865 7.74961V10.3811H31.2286V17.5932C31.2286 19.1526 30.1103 20.5657 28.5544 20.8094C26.8527 21.0531 25.2968 19.8348 25.0537 18.1292C25.0537 17.983 25.0051 17.8856 25.0051 17.7394V7.55469L19.4137 7.74961V10.3811H21.4558V17.7394C21.4558 21.3942 24.4216 24.4155 28.1168 24.4155C29.1865 24.4155 30.2561 24.1718 31.2286 23.6358" fill="#fff"/>
<path d="M66.3328 7.75C65.2631 7.75 64.1934 7.99365 63.221 8.52969V7.75L57.6296 7.94492V10.5764H59.6717V24.2209H63.221V14.5235C63.221 12.9642 64.3393 11.551 65.8952 11.3561C67.5969 11.1124 69.1528 12.3307 69.3959 14.0362C69.3959 14.1824 69.4445 14.2799 69.4445 14.4261V24.2209H72.9938V14.3774C72.9452 10.7226 69.9793 7.75 66.3328 7.75Z" fill="#fff"/>
<path d="M49.7034 7.74863V10.3801H51.7941V24.1221H55.3434V7.55371L49.7034 7.74863Z" fill="#fff"/>
<path d="M53.2038 5.02149C54.4122 5.02149 55.3917 4.03927 55.3917 2.82764C55.3917 1.61601 54.4122 0.633789 53.2038 0.633789C51.9954 0.633789 51.0159 1.61601 51.0159 2.82764C51.0159 4.03927 51.9954 5.02149 53.2038 5.02149Z" fill="#fff"/>
<path d="M43.1893 14.083C40.0776 13.4495 40.0776 12.8648 40.0776 12.4262V12.3775C40.0776 11.6465 41.0014 10.8668 42.46 10.8668C43.6755 10.8668 44.891 11.3054 45.8634 12.0364L48.0027 9.25872C46.4469 8.04045 44.502 7.40695 42.5086 7.40695C39.2024 7.40695 36.6255 9.59983 36.6255 12.3775C36.6255 15.7886 39.5427 16.812 42.4113 17.3967C45.5717 18.0302 45.5717 18.615 45.5717 19.1023V19.151C45.5717 20.2718 44.3076 20.7591 42.9948 20.7591C41.4876 20.7591 40.0776 20.1744 39.0565 19.1023L36.6255 21.6363C38.3272 23.2931 40.6124 24.219 42.9948 24.219C46.5441 24.219 49.121 22.0749 49.121 19.1023V19.0536C49.0238 15.7399 46.0579 14.6678 43.1893 14.083Z" fill="#fff"/>
<path d="M99.2962 14.0828C96.1845 13.4493 96.1845 12.8646 96.1845 12.426V12.3773C96.1845 11.6463 97.1083 10.8666 98.5669 10.8666C99.7825 10.8666 100.998 11.3052 101.97 12.0361L104.11 9.2585C102.554 8.04024 100.609 7.40674 98.6156 7.40674C95.3094 7.40674 92.7325 9.59962 92.7325 12.3773C92.7325 15.7884 95.6497 16.8117 98.5183 17.3965C101.679 18.03 101.679 18.6148 101.679 19.1021V19.1508C101.679 20.2716 100.415 20.7589 99.1018 20.7589C97.5945 20.7589 96.1845 20.1742 95.1149 19.1021L92.6838 21.6361C94.3856 23.2929 96.6707 24.2188 99.0531 24.2188C102.602 24.2188 105.179 22.0747 105.179 19.1021V19.0534C105.131 15.7397 102.213 14.6676 99.2962 14.0828Z" fill="#fff"/>
<path d="M112.912 14.0831C109.8 13.4496 109.8 12.8648 109.8 12.4262V12.3775C109.8 11.6465 110.724 10.8669 112.182 10.8669C113.398 10.8669 114.613 11.3054 115.586 12.0364L117.725 9.25875C116.169 8.04048 114.224 7.40698 112.231 7.40698C108.925 7.40698 106.348 9.59986 106.348 12.3775C106.348 15.7886 109.265 16.812 112.134 17.3968C115.294 18.0303 115.294 18.615 115.294 19.1023V19.1511C115.294 20.2719 114.03 20.7592 112.717 20.7592C111.21 20.7592 109.8 20.1744 108.779 19.1023L106.348 21.6363C108.05 23.2932 110.335 24.219 112.717 24.219C116.267 24.219 118.843 22.0749 118.843 19.1023V19.0536C118.795 15.7399 115.829 14.6678 112.912 14.0831Z" fill="#fff"/>
<path d="M120.641 11.3555C120.641 10.3317 121.467 9.50293 122.488 9.50293C123.509 9.50293 124.336 10.3317 124.336 11.3555C124.336 11.8918 124.142 12.4281 123.704 12.8181L123.169 12.2818C123.461 12.038 123.607 11.6968 123.607 11.3555C123.607 10.7705 123.072 10.3317 122.44 10.3317C121.808 10.3317 121.273 10.7705 121.273 11.4043C121.273 11.7455 121.467 12.0868 121.711 12.3306L121.224 12.8181C120.884 12.4768 120.641 11.9405 120.641 11.3555Z" fill="#fff"/>
<path d="M120.642 15.4972C120.593 14.4734 121.42 13.5959 122.441 13.5959H122.49C123.559 13.5471 124.435 14.3759 124.483 15.4485C124.532 16.521 123.705 17.3986 122.636 17.4473C121.566 17.4961 120.691 16.6673 120.642 15.5947C120.642 15.546 120.642 15.546 120.642 15.4972ZM123.657 15.4972C123.657 14.8147 123.122 14.4247 122.49 14.4247C121.858 14.3759 121.371 14.8634 121.323 15.4485V15.4972C121.323 16.1798 121.858 16.5698 122.49 16.5698C123.122 16.6185 123.608 16.131 123.657 15.4972C123.657 15.546 123.657 15.546 123.657 15.4972Z" fill="#fff"/>
<path d="M124.386 22.7104C124.386 23.4904 123.9 23.9779 123.025 23.9779H120.739V23.1492H122.781C123.365 23.1492 123.657 22.9054 123.657 22.4179C123.657 21.9303 123.365 21.6378 122.781 21.6378H120.739V20.809H122.781C123.316 20.809 123.657 20.5165 123.657 20.0778C123.657 19.639 123.316 19.2977 122.781 19.2977H120.739V18.4689H124.337V19.2977H123.802C124.191 19.5415 124.435 19.9315 124.435 20.419C124.435 20.8578 124.191 21.2966 123.802 21.4916C124.143 21.7353 124.386 22.2229 124.386 22.7104Z" fill="#fff"/>
<path d="M121.176 8.57743C121.471 8.57743 121.711 8.33733 121.711 8.04116C121.711 7.74498 121.471 7.50488 121.176 7.50488C120.88 7.50488 120.641 7.74498 120.641 8.04116C120.641 8.33733 120.88 8.57743 121.176 8.57743Z" fill="#fff"/>
<path d="M91.4211 17.3007C92.199 12.72 89.1359 8.33427 84.5656 7.55458C79.9952 6.77489 75.6193 9.84492 74.8414 14.4256C74.7442 14.9129 74.6956 15.3515 74.6956 15.8388C74.6956 15.8875 74.6956 15.9363 74.6956 15.985C74.6956 16.0824 74.6956 16.1312 74.6956 16.2286C74.6956 16.3261 74.6956 16.4236 74.6956 16.521C74.6956 16.5698 74.6956 16.5698 74.6956 16.6185C74.6956 16.7159 74.6956 16.8134 74.7442 16.9109C74.7442 16.9596 74.7442 16.9596 74.7442 17.0083C74.7442 17.1058 74.7442 17.1545 74.7928 17.252V17.3007C75.5221 21.2479 79.0714 24.2692 83.3987 24.2692C86.4132 24.2692 89.2332 22.7586 90.8863 20.2246L87.8232 18.4215C86.8507 19.8834 85.1976 20.7606 83.4473 20.7119C81.1135 20.7119 79.1687 19.2987 78.488 17.3007H91.4211ZM83.1069 10.9657C85.2463 10.9657 87.0938 12.3302 87.7259 14.3769H78.4394C79.12 12.3302 80.9676 10.9657 83.1069 10.9657Z" fill="#fff"/>
</svg>
