<svg width="42" height="25" viewBox="0 0 42 25" fill="none" xmlns="http://www.w3.org/2000/svg">
<path d="M15.771 4.58376C15.6731 4.4375 15.771 4.4375 15.869 4.4375C16.3098 4.4375 16.7506 4.4375 17.1914 4.4375C17.1424 4.58376 16.9955 4.535 16.8975 4.535C16.5547 4.58376 16.1629 4.535 15.771 4.58376Z" fill="#fff"/>
<path d="M13.7167 10.0402C13.6677 9.84524 13.6188 9.65023 13.9126 9.69898C13.8636 9.79649 13.8147 9.89399 13.7167 10.0402Z" fill="#fff"/>
<path d="M15.4302 7.31002C15.2833 7.0175 15.4792 7.0175 15.6751 6.96875C15.6261 7.06625 15.5282 7.16376 15.4302 7.31002Z" fill="#fff"/>
<path d="M14.9414 8.04049C14.9904 7.89423 14.9414 7.74797 15.1373 7.69922C15.1373 7.84548 15.0394 7.94298 14.9414 8.04049Z" fill="#fff"/>
<path d="M12.0977 12.5712C12.0977 12.4739 12.1465 12.3281 12.2442 12.3281C12.2442 12.4253 12.1465 12.4739 12.0977 12.5712Z" fill="#fff"/>
<path d="M10.3867 13.8867C10.4356 13.7409 10.4844 13.7409 10.582 13.8867H10.3867Z" fill="#fff"/>
<path d="M11.3633 13.743C11.3633 13.6458 11.4121 13.5486 11.5098 13.5C11.4609 13.5972 11.4121 13.6458 11.3633 13.743Z" fill="#fff"/>
<path d="M12.832 11.3563C12.832 11.2591 12.832 11.1619 12.9785 11.1133C12.9297 11.2105 12.9297 11.3077 12.832 11.3563Z" fill="#fff"/>
<path d="M13.0781 10.964C13.0781 10.8667 13.0781 10.7695 13.2246 10.7695C13.1758 10.8667 13.1758 10.9153 13.0781 10.964Z" fill="#fff"/>
<path d="M13.3242 10.5733C13.3242 10.4761 13.373 10.3789 13.4707 10.3789C13.4219 10.4761 13.4219 10.5247 13.3242 10.5733Z" fill="#fff"/>
<path d="M10.4336 12.5742C10.4336 12.6714 10.4336 12.7686 10.3359 12.8172C10.3359 12.7686 10.3848 12.6714 10.4336 12.5742Z" fill="#fff"/>
<path d="M13.5703 10.2335C13.5703 10.1363 13.5703 10.0877 13.668 10.0391C13.668 10.0877 13.668 10.1849 13.5703 10.2335Z" fill="#fff"/>
<path d="M18.0273 3.21786C18.0273 3.12065 18.0273 3.07204 18.125 3.02344C18.0762 3.12065 18.0762 3.21786 18.0273 3.21786Z" fill="#fff"/>
<path d="M11.5586 10.2344C11.5586 10.3316 11.5586 10.4288 11.4609 10.4288C11.4609 10.3802 11.5098 10.283 11.5586 10.2344Z" fill="#fff"/>
<path d="M17.4375 4.14364C17.4375 4.04643 17.4375 3.94922 17.584 3.94922C17.5352 4.04643 17.4863 4.09504 17.4375 4.14364Z" fill="#fff"/>
<path d="M11.2188 10.9648C11.2188 11.0621 11.2188 11.1107 11.1211 11.1593C11.1211 11.1107 11.1699 11.0134 11.2188 10.9648Z" fill="#fff"/>
<path d="M10.9727 11.5C10.9727 11.5972 10.9238 11.6458 10.875 11.6944C10.875 11.6458 10.9238 11.5486 10.9727 11.5Z" fill="#fff"/>
<path d="M12.3945 12.085C12.3945 11.9878 12.4434 11.8906 12.541 11.8906C12.4922 11.9878 12.4434 12.0364 12.3945 12.085Z" fill="#fff"/>
<path d="M14.4492 8.81942C14.4492 8.72221 14.4492 8.625 14.5957 8.625C14.5957 8.67361 14.5469 8.77082 14.4492 8.81942Z" fill="#fff"/>
<path d="M14.0586 9.50266C14.0586 9.40453 14.0586 9.35547 14.1572 9.35547C14.1079 9.40453 14.1079 9.4536 14.0586 9.50266Z" fill="#fff"/>
<path d="M10.8242 11.793C10.8242 11.8902 10.7754 11.9874 10.7266 12.036C10.7266 11.8902 10.7754 11.8416 10.8242 11.793Z" fill="#fff"/>
<path d="M17.5352 3.95188C17.5352 3.90282 17.5352 3.85375 17.5845 3.80469C17.6337 3.90282 17.5844 3.95188 17.5352 3.95188Z" fill="#fff"/>
<path d="M12.9805 11.112C12.9805 11.063 12.9805 11.0139 13.0298 10.9648C13.0298 10.9648 13.0298 10.9648 13.0791 10.9648L12.9805 11.112Z" fill="#fff"/>
<path d="M12.4922 11.8933C12.4922 11.8442 12.4922 11.7952 12.5908 11.7461C12.5908 11.8442 12.5415 11.8933 12.4922 11.8933Z" fill="#fff"/>
<path d="M11.5117 13.4011C11.5117 13.352 11.5117 13.2539 11.6103 13.2539C11.6103 13.303 11.6103 13.4011 11.5117 13.4011Z" fill="#fff"/>
<path d="M11.2188 13.8894C11.2188 13.8403 11.268 13.7422 11.3173 13.7422C11.3173 13.7913 11.3173 13.8403 11.2188 13.8894Z" fill="#fff"/>
<path d="M13.9609 9.6511C13.9609 9.60204 14.0102 9.50391 14.0595 9.50391L13.9609 9.6511Z" fill="#fff"/>
<path d="M15.7227 6.82298L15.7719 6.67578C15.7719 6.77391 15.7719 6.82298 15.7227 6.82298Z" fill="#fff"/>
<path d="M11.415 10.5742C11.415 10.6233 11.415 10.7214 11.3164 10.7214C11.3164 10.6723 11.3657 10.6233 11.415 10.5742Z" fill="#fff"/>
<path d="M11.707 9.98828C11.707 10.0369 11.707 10.1341 11.6094 10.1827C11.6582 10.0855 11.6582 10.0369 11.707 9.98828Z" fill="#fff"/>
<path d="M11.8047 12.9644L11.8535 12.8672C11.9024 12.9158 11.8535 12.9644 11.8047 12.9644Z" fill="#fff"/>
<path d="M10.5814 12.3789C10.5814 12.428 10.5814 12.477 10.5321 12.5261C10.4828 12.428 10.5321 12.3789 10.5814 12.3789Z" fill="#fff"/>
<path d="M12.2461 12.2808L12.3438 12.1836C12.3438 12.2322 12.2949 12.2808 12.2461 12.2808Z" fill="#fff"/>
<path d="M11.1205 11.2578C11.1205 11.3069 11.1205 11.3559 11.0712 11.405C11.0219 11.3559 11.0712 11.3069 11.1205 11.2578Z" fill="#fff"/>
<path d="M12 12.6715C12 12.6228 12.0488 12.5742 12.0977 12.5742C12.0977 12.6228 12.0488 12.6228 12 12.6715Z" fill="#fff"/>
<path d="M11.268 10.8672C11.268 10.9163 11.268 10.9653 11.2188 11.0144C11.2188 10.9163 11.2188 10.8672 11.268 10.8672Z" fill="#fff"/>
<path d="M10.0424 13.5C10.0424 13.5491 10.0424 13.5981 9.99307 13.6472C9.94378 13.5491 9.99307 13.5 10.0424 13.5Z" fill="#fff"/>
<path d="M11.7559 9.84375L11.707 9.94099C11.707 9.94099 11.707 9.89237 11.7559 9.84375Z" fill="#fff"/>
<path d="M14.3047 9.11488L14.3534 9.06641C14.3534 9.06641 14.3047 9.06641 14.3047 9.11488Z" fill="#fff"/>
<path d="M14.5977 8.62766C14.5977 8.5786 14.6469 8.52953 14.6962 8.48047C14.6469 8.52953 14.6469 8.5786 14.5977 8.62766Z" fill="#fff"/>
<path d="M10.2857 12.9609C10.2381 12.9609 10.2381 13.0077 10.2857 12.9609V12.9609Z" fill="#fff"/>
<path d="M10.1895 13.1094L10.1406 13.2066L10.1895 13.1094Z" fill="#fff"/>
<path d="M10.1387 13.2539L10.0898 13.3512L10.1387 13.2539Z" fill="#fff"/>
<path d="M17.8789 3.41176L17.9276 3.36328C17.9276 3.36328 17.9276 3.41176 17.8789 3.41176Z" fill="#fff"/>
<path d="M10.0918 13.3516L10.043 13.4488L10.0918 13.3516Z" fill="#fff"/>
<path d="M17.6328 3.80428L17.6817 3.70703L17.6328 3.80428Z" fill="#fff"/>
<path d="M12.7852 11.4527L12.834 11.3555L12.7852 11.4527Z" fill="#fff"/>
<path d="M12.5898 11.7457L12.6387 11.6484C12.6875 11.6971 12.6387 11.6971 12.5898 11.7457Z" fill="#fff"/>
<path d="M13.2266 10.7691L13.2754 10.6719L13.2266 10.7691Z" fill="#fff"/>
<path d="M10.6309 12.2305L10.582 12.3277L10.6309 12.2305Z" fill="#fff"/>
<path d="M11.168 13.8883L11.2167 13.8398C11.2167 13.8883 11.2167 13.8883 11.168 13.8883Z" fill="#fff"/>
<path d="M18.125 3.07191L18.1737 3.02344C18.1737 3.02344 18.1737 3.02344 18.125 3.07191Z" fill="#fff"/>
<path d="M17.9258 3.316L17.9746 3.21875L17.9258 3.316Z" fill="#fff"/>
<path d="M15.2344 7.55428L15.2832 7.45703L15.2344 7.55428Z" fill="#fff"/>
<path d="M15.3789 7.35897L15.4278 7.26172L15.3789 7.35897Z" fill="#fff"/>
<path d="M20.8159 24.3652C13.9589 24.3652 7.10189 24.3652 0.195914 24.3652C0.0489786 24.3652 0 24.3165 0 24.1703C0 16.1785 0 8.18672 0 0.194922C0 0.0487305 0.0489786 0 0.195914 0C13.9099 0 27.6729 0 41.3869 0C41.5338 0 41.5828 0.0487305 41.5828 0.194922C41.5828 8.18672 41.5828 16.1785 41.5828 24.1703C41.5828 24.3165 41.5338 24.3652 41.3869 24.3652C34.5299 24.3652 27.6729 24.3652 20.8159 24.3652ZM10.5794 12.3775C10.5304 12.3775 10.5304 12.4263 10.5304 12.475C10.4814 12.475 10.4814 12.5237 10.4814 12.5725C10.4324 12.6212 10.3835 12.7187 10.3835 12.8161L10.2855 12.9623L10.2365 13.011L10.1875 13.1085L10.1386 13.206C10.1386 13.206 10.1386 13.206 10.1386 13.2547L10.0896 13.3522L10.0406 13.4496C10.0406 13.4496 9.99163 13.4496 10.0406 13.4983C9.99163 13.5471 9.99163 13.5958 9.99163 13.6445C9.94265 13.742 9.89367 13.8395 9.8447 13.9369C8.52227 16.6658 7.19985 19.4435 5.87743 22.1724C5.82845 22.2211 5.82845 22.3186 5.73049 22.3186C5.63254 22.1724 5.77947 22.0262 5.82845 21.9287C6.26926 20.6617 6.71007 19.3947 7.15087 18.1277C8.42432 14.4242 9.74674 10.7207 11.0202 7.01719C11.7059 5.1167 12.3426 3.21621 13.0283 1.26699C13.0773 1.02334 13.0773 0.97461 12.8324 0.97461C11.9508 0.97461 11.0692 0.97461 10.1875 0.97461C10.0406 0.97461 9.94265 1.02334 9.94265 1.16953C9.69776 2.2416 9.50185 3.3624 9.25695 4.43447C8.71819 7.06592 8.13044 9.69737 7.59168 12.3288C6.90598 15.6912 6.12232 19.0049 5.4856 22.3673C5.4856 22.4648 5.38764 22.5622 5.4856 22.6109C5.58356 22.6597 5.68152 22.5622 5.77947 22.4648C5.82845 22.416 5.82845 22.3673 5.87743 22.3186C7.15087 20.2719 8.47329 18.2739 9.74674 16.2272C9.89367 16.0323 9.94265 15.7887 9.94265 15.545C9.94265 15.0577 9.94265 14.6191 9.94265 14.1318C9.94265 14.0344 9.89367 13.9369 9.99163 13.8395H10.5304C10.7263 13.8395 10.9222 13.8395 11.1181 13.8395C11.1671 13.8395 11.1671 13.8395 11.1671 13.7907C11.2161 13.7907 11.2651 13.6933 11.2651 13.6445C11.3141 13.5958 11.363 13.4983 11.412 13.4009C11.461 13.4009 11.461 13.3522 11.461 13.3034C11.51 13.2547 11.5589 13.206 11.5589 13.1572C11.6569 13.0598 11.7059 12.9623 11.7549 12.8648C11.8038 12.8648 11.8038 12.8161 11.8038 12.7674C11.8528 12.7187 11.9018 12.6699 11.9018 12.5725C11.9508 12.5725 11.9998 12.5237 11.9998 12.475C12.0487 12.3775 12.1467 12.3288 12.1467 12.2314C12.1957 12.2314 12.2446 12.1826 12.2446 12.1339L12.2936 12.0364C12.3916 11.9877 12.3916 11.939 12.4406 11.8415C12.4895 11.8415 12.5385 11.744 12.5385 11.6953L12.5875 11.6466C12.6365 11.6466 12.6365 11.5979 12.6365 11.5979C12.6855 11.5491 12.7344 11.5004 12.7834 11.4029L12.8324 11.3055C12.9303 11.2567 12.9303 11.1593 12.9793 11.0618L13.0773 10.9156C13.1752 10.8669 13.1752 10.7694 13.2242 10.7207L13.2732 10.6232L13.3222 10.5258C13.4201 10.4771 13.4201 10.3796 13.4691 10.3309C13.5181 10.2821 13.5671 10.2334 13.5671 10.1359C13.665 10.0872 13.665 10.0385 13.665 9.94102C13.763 9.84356 13.812 9.7461 13.8609 9.59991L13.9589 9.45371C14.0079 9.40498 14.0569 9.35625 14.0569 9.30752L14.2038 9.06387C14.2528 9.06387 14.2528 9.06387 14.2528 9.01514C14.3507 8.96641 14.3997 8.86895 14.3997 8.77149C14.4487 8.72276 14.4977 8.67403 14.5466 8.57656C14.5956 8.57656 14.6446 8.52783 14.6446 8.43037C14.7915 8.28418 14.8895 8.13799 14.9385 7.9918C15.0364 7.89434 15.0854 7.79688 15.1344 7.65069C15.1834 7.60195 15.2323 7.55322 15.2323 7.50449L15.2813 7.40703C15.3303 7.40703 15.3303 7.3583 15.3303 7.30957L15.3793 7.21211C15.4772 7.11465 15.5752 7.01719 15.6242 6.871L15.6731 6.77354C15.7221 6.72481 15.7221 6.67608 15.7221 6.62735V4.53193C16.114 4.43447 16.5058 4.53193 16.8486 4.4832C16.9466 4.4832 17.0935 4.53193 17.1425 4.38574C17.2405 4.28828 17.2894 4.19082 17.3384 4.04463C17.3874 3.9959 17.4364 3.94717 17.4854 3.84971C17.5833 3.94717 17.6323 3.89844 17.6323 3.84971L17.6813 3.75225C17.7792 3.65479 17.8282 3.55733 17.8772 3.45986C17.9262 3.45986 17.9262 3.41113 17.9262 3.41113C17.9262 3.41113 17.9262 3.41113 17.9262 3.3624L17.9751 3.26494C18.0731 3.21621 18.1221 3.11875 18.1221 3.07002C18.1711 3.07002 18.1711 3.07002 18.1711 3.02129L19.4935 0.97461C18.4159 0.97461 17.3874 0.97461 16.3588 0.97461C16.065 0.97461 15.967 1.07207 15.8691 1.31572C15.0364 3.02129 14.2038 4.77559 13.3712 6.48115C12.8324 7.60195 12.2936 8.72276 11.7549 9.89229C11.7059 9.89229 11.7059 9.94102 11.7059 9.98975C11.6569 10.0385 11.6569 10.0872 11.6079 10.1847L11.5589 10.2334C11.51 10.2821 11.461 10.3796 11.461 10.4283L11.412 10.5258C11.363 10.5745 11.3141 10.6232 11.3141 10.672L11.2651 10.8669C11.2161 10.9156 11.2161 10.9644 11.2161 11.0131C11.1671 11.0618 11.1181 11.1105 11.1181 11.208L11.0692 11.3055C11.0202 11.3542 10.9712 11.4029 11.0202 11.4517C10.9712 11.4517 10.9712 11.5004 10.9712 11.5491C10.9222 11.5979 10.8732 11.6953 10.8732 11.744L10.8243 11.7928C10.7753 11.8415 10.7263 11.939 10.7263 12.0364C10.6773 12.0852 10.6284 12.1826 10.6284 12.2801L10.5794 12.3775ZM29.3382 8.91768C29.3382 6.67608 27.526 4.92178 25.224 4.92178C23.0199 4.92178 21.1587 6.72481 21.1587 8.91768C21.1587 11.1593 22.971 12.9623 25.2729 12.9623C27.5749 12.9136 29.3382 11.1105 29.3382 8.91768ZM24.8811 18.3227H24.7832C24.7832 18.2739 24.7342 18.2739 24.7342 18.2252C24.4893 16.9582 24.1954 15.6912 23.9505 14.4242C23.9015 14.2293 23.8526 14.1806 23.6567 14.1806C23.2158 14.1806 22.7261 14.1806 22.2853 14.1806C22.0893 14.1806 22.0893 14.1806 22.1383 14.3755C22.6771 16.6658 23.2158 18.9562 23.7546 21.1978C23.8036 21.344 23.8526 21.4414 24.0485 21.4414C24.4893 21.4414 24.8811 21.4414 25.3219 21.4414C25.4689 21.4414 25.5668 21.3927 25.5668 21.2465C25.7627 20.1744 26.0076 19.1023 26.2035 18.0303C26.2525 17.8354 26.2525 17.5917 26.3505 17.3968C26.4484 17.4455 26.4484 17.4942 26.4484 17.5917C26.6933 18.81 26.9382 20.0282 27.1831 21.2465C27.2321 21.3927 27.2811 21.4414 27.428 21.4414C27.8198 21.4414 28.2606 21.4414 28.6525 21.4414C28.7994 21.4414 28.8484 21.3927 28.8974 21.2465C29.4361 18.9562 29.9749 16.6658 30.5137 14.3268C30.5626 14.1318 30.5137 14.1318 30.3667 14.1318C30.0239 14.1318 29.681 14.1318 29.3382 14.1318C29.1423 14.1318 29.0443 14.1806 28.9953 14.3755C28.7994 15.3501 28.6035 16.3247 28.3586 17.2993C28.3096 17.5917 28.2117 17.9328 28.1137 18.3227C27.9668 18.0303 27.9668 17.8354 27.9178 17.6404C27.6729 16.5684 27.477 15.4476 27.2321 14.3755C27.1831 14.2293 27.1341 14.1318 26.9382 14.1318C26.5464 14.1318 26.2035 14.1318 25.8117 14.1318C25.6648 14.1318 25.6158 14.1806 25.5668 14.3268C25.4199 15.1552 25.224 16.0323 25.077 16.8607C25.0281 17.3968 24.9301 17.8841 24.8811 18.3227ZM28.2606 12.8161C29.0933 12.8161 29.828 12.8161 30.6116 12.8161C30.7586 12.8161 30.7586 12.7187 30.8075 12.6212C31.1014 12.0852 31.3953 11.5979 31.7381 11.0618C31.8851 10.7694 31.934 10.7694 32.081 11.0618C32.3748 11.5491 32.6687 12.0364 32.9626 12.5237C33.0605 12.7187 33.1585 12.7674 33.4034 12.7674C34.0401 12.7674 34.7258 12.7674 35.3625 12.7674C35.4605 12.7674 35.5585 12.8161 35.6074 12.7187C35.6564 12.6212 35.5584 12.5725 35.5095 12.475C34.7748 11.2567 34.0401 10.0385 33.3054 8.82022C33.2075 8.67403 33.2075 8.57656 33.3054 8.43037C33.7462 7.69942 34.187 6.96846 34.6279 6.2375C34.8727 5.79893 35.1666 5.31162 35.4605 4.82432C34.6279 4.82432 33.8442 4.82432 33.0605 4.82432C32.9136 4.82432 32.8646 4.92178 32.8157 5.01924C32.5708 5.40908 32.3259 5.84766 32.081 6.2375C31.983 6.43242 31.8851 6.52988 31.7871 6.2375C31.5912 5.84766 31.2973 5.45781 31.1014 5.06797C31.0034 4.87305 30.8565 4.82432 30.6606 4.82432C30.1218 4.82432 29.5831 4.82432 28.9953 4.82432H28.4076C29.1423 6.04258 29.828 7.26084 30.5626 8.43037C30.6606 8.62529 30.6606 8.72276 30.5626 8.86895C30.0728 9.69737 29.5831 10.5745 29.0933 11.4029C28.7504 11.939 28.5055 12.3775 28.2606 12.8161ZM16.4078 17.8841C16.4078 16.7633 16.4078 15.6425 16.4078 14.5217C16.4078 14.278 16.3099 14.2293 16.114 14.2293C15.7221 14.2293 15.3303 14.2293 14.9385 14.2293C14.6936 14.2293 14.6446 14.278 14.6446 14.5217C14.6446 15.545 14.6446 16.5196 14.6446 17.543C14.6446 17.5917 14.6936 17.6892 14.5956 17.7379C14.4977 17.7866 14.4487 17.6892 14.3997 17.6404C14.3507 17.5917 14.3507 17.543 14.3017 17.4942C13.714 16.4709 13.0773 15.4963 12.4895 14.473C12.3916 14.3268 12.3426 14.278 12.1957 14.278C11.6569 14.278 11.0692 14.278 10.5304 14.278C10.3345 14.278 10.3345 14.3268 10.3345 14.473C10.3345 15.009 10.3345 15.5938 10.3345 16.1298C10.3345 17.8354 10.3345 19.5409 10.3345 21.2465C10.3345 21.4414 10.3835 21.4901 10.5304 21.4414C10.9712 21.4414 11.412 21.3927 11.8528 21.3927C12.0977 21.3927 12.1467 21.344 12.1467 21.1003C12.1467 19.9795 12.1467 18.81 12.1467 17.6892C12.1467 17.5917 12.0487 17.3968 12.1957 17.3481C12.3426 17.2993 12.3426 17.4942 12.4406 17.5917C13.1752 18.81 13.9099 20.0282 14.5956 21.2465C14.6936 21.3927 14.7915 21.4414 14.9385 21.4414C15.3303 21.4414 15.7221 21.4414 16.114 21.4414C16.3588 21.4414 16.4078 21.3927 16.4078 21.149C16.4078 20.077 16.4078 19.0049 16.4078 17.8841ZM16.114 8.86895C16.114 10.1359 16.114 11.3542 16.114 12.6212C16.114 12.8161 16.1629 12.8648 16.3588 12.8648C16.9466 12.8648 17.5833 12.8648 18.1711 12.8648C18.4159 12.8648 18.4159 12.7674 18.4159 12.5725C18.4159 11.939 18.4159 11.2567 18.4159 10.6232C18.4159 10.3309 18.5139 10.2821 18.7588 10.2821C19.3465 10.2821 19.9343 10.2821 20.522 10.2821C20.669 10.2821 20.7669 10.2334 20.7669 10.0872C20.7669 9.50244 20.7669 8.91768 20.7669 8.33291C20.7669 8.13799 20.7179 8.13799 20.522 8.13799C20.0812 8.13799 19.6894 8.13799 19.2486 8.13799C19.0037 8.13799 18.6119 8.28418 18.4649 8.08926C18.318 7.94307 18.4159 7.55322 18.4159 7.30957C18.4159 7.06592 18.5139 7.06592 18.7098 7.06592C19.4935 7.06592 20.2282 7.06592 21.0118 7.06592C21.2077 7.06592 21.2567 7.01719 21.2567 6.82227C21.2077 6.28623 21.1587 5.7502 21.1098 5.21416C21.1098 5.01924 21.0118 4.97051 20.8159 4.97051C19.3465 4.97051 17.8772 4.97051 16.3588 4.97051C16.114 4.97051 16.065 5.01924 16.065 5.26289C16.1629 6.43242 16.114 7.65069 16.114 8.86895ZM33.2075 13.9856C32.4238 13.9856 31.7381 14.2293 31.2483 14.6679C30.3667 15.4476 30.2198 17.1531 31.2483 17.9328C31.5422 18.1765 31.934 18.3227 32.2769 18.4689C32.7177 18.615 33.1585 18.7125 33.5993 18.8587C33.8442 18.9074 33.9422 19.1023 33.8932 19.346C33.8932 19.5897 33.7952 19.7358 33.5503 19.8333C32.9626 20.077 32.2279 19.7846 31.983 19.1998C31.934 19.0536 31.8361 18.9562 31.6891 19.0536C31.4442 19.1511 31.1504 19.1998 30.9055 19.2485C30.1218 19.3947 30.0728 19.4922 30.4647 20.2232C30.4647 20.2719 30.5137 20.2719 30.5137 20.3206C31.0524 21.149 31.8361 21.5389 32.8157 21.5876C33.8442 21.6363 34.7748 21.3927 35.4115 20.5155C36.1462 19.4922 36.0482 17.6404 34.285 17.1044C33.7952 16.9582 33.2565 16.812 32.7667 16.6658C32.5218 16.6171 32.3748 16.4709 32.3748 16.1785C32.3748 15.9349 32.6197 15.7399 32.8646 15.6912C33.4034 15.5938 33.7462 15.7399 34.0401 16.2272C34.1381 16.3734 34.187 16.3734 34.334 16.3247C34.7258 16.1785 35.0687 16.0811 35.4605 15.9349C35.6564 15.8861 35.6564 15.7887 35.6074 15.5938C35.1176 14.473 34.334 13.9856 33.2075 13.9856ZM16.9466 17.8354C16.9466 18.9562 16.9466 20.1257 16.9466 21.2465C16.9466 21.4414 16.9466 21.4901 17.1915 21.4901C18.6119 21.4901 20.0812 21.4901 21.5016 21.4901C21.6975 21.4901 21.7465 21.4414 21.7465 21.2465C21.7465 20.8566 21.7465 20.4668 21.7465 20.1257C21.7465 19.882 21.6975 19.8333 21.4526 19.8333C20.669 19.8333 19.8853 19.8333 19.1016 19.8333C18.8078 19.8333 18.7588 19.7358 18.7588 19.4922C18.7588 19.2485 18.7588 19.0049 18.7588 18.7612C18.7588 18.5663 18.8078 18.5176 19.0037 18.5176C19.6404 18.5176 20.2282 18.5176 20.8649 18.5176C21.0608 18.5176 21.1587 18.4689 21.1587 18.2739C21.1587 17.9328 21.1587 17.543 21.1587 17.2019C21.1587 17.0069 21.1098 16.9582 20.9139 16.9582C20.2771 16.9582 19.6404 16.9582 19.0037 16.9582C18.8078 16.9582 18.7098 16.9095 18.7098 16.7146C18.7098 16.5196 18.7098 16.3247 18.7098 16.1298C18.7098 15.9349 18.7588 15.8861 18.9547 15.8861C19.7384 15.8861 20.522 15.8861 21.3057 15.8861C21.5016 15.8861 21.5506 15.8374 21.5506 15.6425C21.5506 15.2526 21.5506 14.8628 21.5506 14.473C21.5506 14.278 21.5016 14.2293 21.3057 14.2293C19.8853 14.2293 18.4649 14.2293 17.0935 14.2293C16.8976 14.2293 16.8486 14.278 16.8486 14.473C16.9466 15.5938 16.9466 16.7146 16.9466 17.8354Z" fill="#fff"/>
<path d="M26.0084 8.82433C26.0084 9.36061 26.0084 9.94563 26.0084 10.4819C26.0084 10.9207 25.7146 11.2619 25.2737 11.2619C24.8329 11.2619 24.5391 10.9207 24.5391 10.4819C24.5391 9.40936 24.5391 8.28806 24.5391 7.21551C24.5391 6.72798 24.8819 6.38672 25.2737 6.38672C25.7146 6.38672 26.0084 6.72798 26.0084 7.21551C26.0084 7.75178 26.0084 8.28806 26.0084 8.82433Z" fill="#fff"/>
</svg>
