<svg width="25" height="26" viewBox="0 0 25 26" fill="none" xmlns="http://www.w3.org/2000/svg">
<path d="M24.1617 12.218C24.0931 12.5202 24.0441 12.8323 23.907 13.115C23.4809 13.9926 22.761 14.4655 21.806 14.4752C19.181 14.4996 16.5511 14.485 13.9213 14.485C13.8625 14.485 13.8086 14.485 13.7499 14.4801C13.696 14.4752 13.6519 14.4362 13.6372 14.3875C13.6176 14.3241 13.6715 14.2997 13.7107 14.2704L18.2799 11.0967C18.897 10.6677 19.5043 10.2289 20.1311 9.81449C20.7825 9.3806 21.4926 9.18071 22.2713 9.38547C22.8834 9.54635 23.3291 9.94125 23.6915 10.4385C23.858 10.6628 24.0196 10.8919 24.1078 11.1601C24.1127 11.1747 24.1421 11.1844 24.1617 11.1991V12.218Z" fill="#fff"/>
<path d="M10.0169 20.7847C10.0169 19.4739 10.0169 18.1582 10.012 16.8424C10.012 16.706 10.0462 16.6719 10.1834 16.6719C11.3294 16.6767 12.4802 16.6767 13.6262 16.6767C14.7624 16.6767 15.737 17.7098 15.6782 18.8355C15.6439 19.4739 15.4383 20.0294 14.9191 20.4388C14.7967 20.5362 14.8702 20.585 14.9583 20.6386C15.4921 20.9651 15.8692 21.4134 16.0455 22.0176C16.3883 23.192 15.8202 24.3908 14.733 24.7807C14.5273 24.8538 14.3119 24.8927 14.0915 24.8976C12.7888 24.8976 11.4861 24.8976 10.1834 24.8976C10.0511 24.8976 10.012 24.8684 10.012 24.7271C10.0169 23.4113 10.0169 22.0956 10.0169 20.7847ZM11.7211 22.4318C11.7211 22.7583 11.7211 23.0848 11.7211 23.4065C11.7211 23.4796 11.7162 23.5332 11.824 23.5332C12.3235 23.5283 12.8231 23.5332 13.3226 23.5283C13.3667 23.5283 13.4156 23.5185 13.4548 23.5039C13.9103 23.3723 14.3119 23.0361 14.2531 22.4124C14.2041 21.8373 13.7585 21.3646 13.1757 21.3598C12.7398 21.3598 12.3039 21.3646 11.8681 21.3549C11.726 21.35 11.7114 21.4036 11.7114 21.5206C11.726 21.8276 11.7211 22.1297 11.7211 22.4318ZM11.7211 19.0597C11.7211 19.3326 11.7309 19.6103 11.7162 19.8832C11.7114 20.0197 11.7358 20.0684 11.8877 20.0635C12.2648 20.0489 12.6467 20.0587 13.0238 20.0587C13.0875 20.0587 13.1512 20.0538 13.2099 20.0392C13.6556 19.9368 13.8319 19.6055 13.9103 19.201C14.0327 18.5821 13.6262 18.0851 12.9896 18.0753C12.6125 18.0704 12.2305 18.0802 11.8534 18.0704C11.7309 18.0656 11.7162 18.1143 11.7162 18.2166C11.726 18.5041 11.7211 18.7819 11.7211 19.0597Z" fill="#fff"/>
<path d="M7.29503 4.62918C7.29993 4.61944 7.29503 4.60969 7.28524 4.60969C7.29014 4.58045 7.28034 4.55609 7.25585 4.54147L7.24606 4.50736L7.22647 4.4635C7.23137 4.45375 7.22647 4.44401 7.22157 4.43914C7.22647 4.4099 7.21668 4.38066 7.19219 4.36604C7.19709 4.35629 7.19219 4.34167 7.18239 4.3368L7.05506 3.93721L7.04527 3.88361L7.01099 3.33295V3.26473C7.06486 2.85052 7.1677 2.44606 7.3636 2.07083L7.64275 1.69561L7.67213 1.6615L7.70641 1.62251L7.74069 1.5884L7.77987 1.55429L7.80926 1.52505L7.94149 1.41297L7.97577 1.38373C8.46061 1.07673 8.97483 0.867188 9.56252 0.867188L9.66536 0.872061C10.0523 0.925664 10.4342 0.99876 10.8016 1.14495L10.8358 1.16444L10.8701 1.17906L11.0709 1.29114L11.115 1.32038L11.1493 1.34475C11.1542 1.35449 11.164 1.35937 11.1738 1.35937L11.2178 1.3886L11.2521 1.41297H11.257L11.2913 1.44221L11.3501 1.49094L11.737 1.93439L11.7663 1.97824C11.7663 1.98799 11.7712 1.99774 11.7761 2.00261C11.781 2.04159 11.8006 2.08058 11.8349 2.10494L11.8839 2.20728L11.9084 2.24626C11.9279 2.33398 11.9622 2.42169 12.0063 2.49966V2.50941L12.0161 2.51428C12.1434 3.0162 12.163 3.54249 12.07 4.04929C12.0161 4.36604 11.9867 4.69253 11.9475 5.01416L11.9377 5.097C11.8839 5.28217 11.8692 5.47222 11.8496 5.66227L11.8398 5.76461C11.8006 5.9108 11.781 6.06186 11.7761 6.20805L11.7663 6.27628C11.6782 6.74409 11.6243 7.2119 11.5704 7.67971L11.5655 7.74794C11.5264 7.89413 11.5019 8.04032 11.5019 8.19139L11.497 8.25961C11.4578 8.39118 11.4382 8.5325 11.4382 8.66894L11.4333 8.73717C11.3501 9.07828 11.3256 9.43401 11.2766 9.78487C11.1982 10.3258 11.1297 10.8667 11.0611 11.4125L11.0513 11.4807C11.0023 11.7049 10.9681 11.9339 10.9534 12.1678L10.9485 12.236L10.9093 12.6454L10.8407 12.6892L10.8065 12.6843L10.7624 12.6551C10.6497 12.4894 10.5714 12.3091 10.493 12.1239C10.2433 11.5392 10.018 10.9495 9.74372 10.3745C9.74862 10.3648 9.74372 10.355 9.73393 10.355C9.62618 10.0529 9.49885 9.75564 9.35683 9.46325L9.34703 9.42914L9.32744 9.39016C9.32744 9.38041 9.32744 9.37066 9.31765 9.36092L9.29806 9.31706C9.30296 9.30731 9.29806 9.29757 9.28826 9.2927C9.29316 9.26346 9.28337 9.23909 9.25888 9.22447C9.24419 9.13676 9.20991 9.05392 9.15604 8.98569C9.15114 8.92234 9.12665 8.86387 9.08747 8.81514L9.04829 8.7128L9.01891 8.64945L8.99932 8.6056C8.98952 8.54225 8.96504 8.4789 8.92586 8.43017C8.93076 8.42529 8.92586 8.41555 8.92096 8.41067H8.91606C8.92096 8.38143 8.91117 8.3522 8.88668 8.33758C8.89158 8.32783 8.88668 8.31809 8.87689 8.30834C8.87199 8.25474 8.8475 8.21088 8.81322 8.17189C8.77894 8.03545 8.72017 7.90388 8.64671 7.77718C8.65161 7.7723 8.64671 7.76256 8.64181 7.76256H8.63202C8.63691 7.73332 8.62712 7.70895 8.60263 7.68946C8.58794 7.60175 8.54876 7.5189 8.49979 7.45068C8.45081 7.285 8.38225 7.11931 8.2941 6.96825C8.2892 6.9049 8.25982 6.84642 8.22064 6.79769C8.22553 6.75871 8.21084 6.7246 8.18636 6.69536C8.17166 6.60764 8.13738 6.5248 8.08351 6.45658C8.04923 6.32013 7.99536 6.18856 7.9219 6.07161C7.83374 5.81334 7.726 5.55994 7.60357 5.32116C7.60357 5.31141 7.60357 5.30167 7.59377 5.29192C7.55459 5.1506 7.49583 5.01416 7.42237 4.88746L7.40278 4.8436C7.40767 4.81436 7.39298 4.78512 7.36849 4.7705C7.3587 4.72177 7.33421 4.66817 7.29503 4.62918Z" fill="#fff"/>
<path d="M19.7444 4.09766C20.2391 4.09766 20.8023 4.26334 21.3361 4.53136C21.4046 4.56547 21.4585 4.63369 21.5124 4.69217C22.0119 5.25744 22.3498 5.89094 22.34 6.66576C22.3351 7.04586 22.2274 7.41621 22.0315 7.73783C21.8111 8.13255 21.5026 8.47366 21.1255 8.72706C19.1225 10.0915 17.1292 11.4608 15.136 12.8399C14.8324 13.0495 14.5336 13.2541 14.23 13.4588C14.1957 13.4832 14.1614 13.5027 14.1271 13.5222C14.0733 13.5465 14.0145 13.5514 13.9655 13.5075C13.9165 13.4637 13.9459 13.4149 13.9655 13.3662C14.1565 12.913 14.3524 12.4647 14.5434 12.0115C15.4102 9.96969 16.2624 7.92788 17.1341 5.89094C17.4622 5.13074 17.9961 4.55085 18.7943 4.24385C19.0686 4.15126 19.3526 4.11228 19.7444 4.09766Z" fill="#fff"/>
<path d="M9.09106 25.205L3.94882 20.2637C3.94882 20.3514 3.94882 20.405 3.94882 20.4586C3.94882 21.8816 3.94882 23.3045 3.95371 24.7226C3.95371 24.859 3.91454 24.8931 3.78231 24.8883C3.32195 24.8785 2.8616 24.8785 2.40614 24.8883C2.24453 24.8931 2.19556 24.859 2.19556 24.6885C2.20045 22.749 2.20045 20.8046 2.20045 18.8651C2.20045 18.0513 2.20045 17.2327 2.20045 16.375L7.32311 21.2042C7.37208 21.1506 7.3476 21.097 7.35249 21.0483C7.35249 19.6546 7.35739 18.2609 7.35249 16.8672C7.35249 16.7307 7.38678 16.6966 7.5239 16.6966C8.01364 16.7064 8.49848 16.7015 8.98822 16.6966C9.10086 16.6966 9.13024 16.7259 9.13024 16.8379C9.12534 19.5912 9.12534 22.3445 9.12534 25.0978C9.12045 25.1319 9.13514 25.166 9.09106 25.205Z" fill="#fff"/>
<path d="M15.0625 0.973219C16.1644 0.953726 16.9627 1.44103 17.428 2.42539C17.7267 3.05401 17.6924 3.71675 17.428 4.35512C16.3408 6.9817 15.2486 9.6034 14.1516 12.2251C14.1075 12.3274 14.0733 12.4249 14.0243 12.5272C14.0047 12.5711 13.9753 12.6296 13.9165 12.6247C13.848 12.6198 13.8284 12.5565 13.8186 12.498C13.7745 12.23 13.7353 11.9571 13.6913 11.6842C13.466 10.1443 13.2309 8.60443 13.0154 7.05967C12.9224 6.38719 12.7755 5.72445 12.7608 5.04222C12.7559 4.81806 12.7999 4.59877 12.893 4.3941C12.986 4.19918 13.1183 4.05786 13.3289 3.9799C13.4219 3.94578 13.5052 3.90193 13.5835 3.84345C13.6962 3.76061 13.6815 3.69238 13.5492 3.63878C13.4954 3.61929 13.4366 3.60954 13.3827 3.60954C13.1477 3.60467 12.9126 3.5998 12.6775 3.59492C12.6187 3.59492 12.5551 3.5998 12.5698 3.50721C12.653 2.79087 12.8244 2.11351 13.3631 1.58235C13.8382 1.12916 14.421 0.978092 15.0625 0.973219Z" fill="#fff"/>
<path d="M8.18178 11.8466C8.17689 11.8369 8.16709 11.832 8.1573 11.8369C7.80958 11.5835 7.46187 11.3301 7.08477 11.1157L7.04559 11.0816C6.88888 10.95 6.71257 10.833 6.53137 10.7404C6.45301 10.6479 6.34037 10.5991 6.24242 10.5309C5.86533 10.2824 5.50782 10.0095 5.11603 9.78533C4.92503 9.62939 4.71934 9.48807 4.49896 9.37112C4.46957 9.31751 4.4206 9.27853 4.36183 9.26391C4.08758 9.05437 3.79863 8.85945 3.49989 8.68402C3.37746 8.55732 3.25013 8.43549 3.13259 8.30392C2.62816 7.73864 2.34901 7.0954 2.42737 6.32058C2.46165 5.99409 2.58898 5.69683 2.71141 5.39957C2.77508 5.33135 2.82405 5.24851 2.85344 5.16079L3.08851 4.84892L3.12279 4.81481C3.63212 4.43958 4.16594 4.11796 4.80749 4.0205L4.87606 4.01562C5.08175 4.02537 5.28743 4.01563 5.49312 4.06923C6.37955 4.31288 6.96724 4.91227 7.35413 5.70658C7.75571 6.535 8.09363 7.38778 8.46583 8.23082C9.20534 9.90715 9.92035 11.5932 10.6794 13.2598C10.7284 13.3622 10.7774 13.4645 10.7578 13.5863C10.748 13.5863 10.7382 13.5912 10.7284 13.5961H10.6941C10.6843 13.5912 10.6745 13.5863 10.6648 13.5863C10.3464 13.2549 9.94974 13.0308 9.56284 12.7969C9.12208 12.4509 8.65193 12.1488 8.18178 11.8466Z" fill="#fff"/>
<path d="M22.4767 18.5045C22.0849 18.2852 21.7029 18.1293 21.2867 18.061C19.8811 17.8369 18.3776 18.9528 18.1964 20.3611C18.0446 21.5648 18.5931 22.7148 19.5922 23.2704C20.2582 23.6358 20.9585 23.6456 21.6784 23.4701C21.9184 23.4165 22.1535 23.3337 22.3739 23.2265C22.4424 23.1924 22.4767 23.1924 22.4767 23.285C22.4718 23.7869 22.4718 24.2888 22.4767 24.7907C22.4767 24.8833 22.4228 24.9028 22.3592 24.9321C22.0604 25.0636 21.7421 25.1514 21.4189 25.1806C20.5814 25.2732 19.7538 25.2683 18.9751 24.9028C17.6724 24.2839 16.8692 23.246 16.4872 21.8815C16.0122 20.176 16.6733 18.4265 18.1523 17.3593C18.9653 16.7746 19.8566 16.4334 20.8753 16.4627C21.3846 16.4773 21.889 16.5894 22.3543 16.794C22.4228 16.8233 22.4816 16.8476 22.4816 16.95C22.4767 17.4617 22.4767 17.9685 22.4767 18.5045Z" fill="#fff"/>
<path d="M9.32446 9.39844L9.34382 9.43698L9.32446 9.39844Z" fill="#fff"/>
<path d="M11.2451 1.41953L11.2112 1.39062L11.2451 1.41953Z" fill="#fff"/>
<path d="M7.98041 1.39062L7.94653 1.41953L7.98041 1.39062Z" fill="#fff"/>
<path d="M11.2108 1.38871L11.1721 1.35498L11.2108 1.38871Z" fill="#fff"/>
<path d="M11.144 1.34452L11.1101 1.32043L11.144 1.34452Z" fill="#fff"/>
<path d="M10.6985 13.5898H10.7324C10.7178 13.6043 10.7082 13.6043 10.6985 13.5898Z" fill="#fff"/>
<path d="M7.04712 11.0815L7.08584 11.1153L7.04712 11.0815Z" fill="#fff"/>
<path d="M8.98853 8.60547L9.00766 8.64832L8.98853 8.60547Z" fill="#fff"/>
<path d="M11.1092 1.32153L11.0662 1.29297L11.1092 1.32153Z" fill="#fff"/>
<path d="M11.8994 2.24655L11.8752 2.20801L11.8994 2.24655Z" fill="#fff"/>
<path d="M11.7594 1.97644L11.7307 1.93359L11.7594 1.97644Z" fill="#fff"/>
<path d="M7.706 1.62891L7.67212 1.66745L7.706 1.62891Z" fill="#fff"/>
<path d="M7.7403 1.5936L7.70642 1.62732L7.7403 1.5936Z" fill="#fff"/>
<path d="M7.77334 1.55957L7.73462 1.5933L7.77334 1.55957Z" fill="#fff"/>
<path d="M11.2841 1.44737L11.2502 1.41846L11.2841 1.44737Z" fill="#fff"/>
<path d="M9.28931 9.32715L9.30844 9.37L9.28931 9.32715Z" fill="#fff"/>
<path d="M0.879546 10.4677C1.04116 10.263 1.19787 10.0436 1.41336 9.89244C2.2753 9.29279 3.18131 9.12703 4.15589 9.6438C4.63583 9.89732 5.08149 10.2093 5.53205 10.5165C6.11483 10.9162 6.69762 11.316 7.2853 11.7158C7.31959 11.7353 7.35387 11.7548 7.38815 11.7694C7.6722 12.018 8.00032 12.2082 8.30885 12.4276C9.13161 12.998 9.95927 13.5635 10.782 14.129C10.8849 14.2021 10.9877 14.2704 11.0906 14.3435C11.115 14.363 11.1493 14.3874 11.1297 14.4264C11.115 14.4557 11.0808 14.4508 11.0514 14.4508C10.9632 14.4508 10.88 14.4459 10.7918 14.4459C8.2305 14.4459 5.66428 14.4362 3.10295 14.4508C1.96676 14.4557 0.801188 13.6854 0.561217 12.4422C0.433885 11.7597 0.492654 11.1161 0.864854 10.5165C0.874648 10.5018 0.879546 10.4872 0.879546 10.4677Z" fill="#fff"/>
</svg>
