<svg width="146" height="33" viewBox="0 0 146 33" fill="none" xmlns="http://www.w3.org/2000/svg">
<path d="M14.3039 7.19285C12.6556 7.19285 12.1791 7.9239 12.1791 9.53631V12.2111H16.5756L16.135 16.5325H12.1808V29.6471H6.90458V16.5325H3.3501V12.2111H6.90458V9.60976C6.90458 5.25078 8.66218 2.94831 13.566 2.94831C14.5936 2.94592 15.6205 3.0069 16.6405 3.13107V7.19797L14.3039 7.19285Z" fill="#1877F2"/>
<path d="M16.941 20.3792C16.941 15.5078 19.2486 11.8389 24.0842 11.8389C26.7214 11.8389 28.3321 13.1951 29.1025 14.8792V12.2112H34.1566V29.6471H29.1025V27.0099C28.3697 28.6958 26.7214 30.0144 24.0842 30.0144C19.2486 30.0144 16.941 26.3506 16.941 21.4741V20.3792ZM22.2155 21.5526C22.2155 24.1523 23.1669 25.874 25.6214 25.874C27.7838 25.874 28.8821 24.2992 28.8821 21.8088V20.0581C28.8821 17.5677 27.7838 15.9929 25.6214 15.9929C23.1669 15.9929 22.2155 17.7146 22.2155 20.3143V21.5526Z" fill="#1877F2"/>
<path d="M45.1461 11.8447C47.1958 11.8447 49.1379 12.2854 50.2003 13.0165L49.0286 16.7537C47.9296 16.2304 46.7288 15.955 45.5117 15.9475C42.6541 15.9475 41.4123 17.5958 41.4123 20.4175V21.4423C41.4123 24.2641 42.6575 25.9123 45.5117 25.9123C46.7288 25.9047 47.9296 25.6295 49.0286 25.1061L50.2003 28.8417C49.1379 29.5744 47.1975 30.0151 45.1461 30.0151C38.9544 30.0151 36.1344 26.681 36.1344 21.333V20.5268C36.1344 15.1789 38.9544 11.8447 45.1461 11.8447Z" fill="#1877F2"/>
<path d="M50.8959 21.5953V20.0581C50.8959 15.1132 53.7159 11.8594 59.4686 11.8594C64.89 11.8594 67.2711 15.1559 67.2711 19.9915V22.7756H56.1687C56.2797 25.1567 57.3421 26.2191 60.268 26.2191C62.2477 26.2191 64.3349 25.816 65.8739 25.1567L66.8389 28.7692C65.4469 29.5037 62.5893 30.052 60.0631 30.052C53.3862 30.0503 50.8959 26.7195 50.8959 21.5953ZM56.1704 19.3236H62.5449V18.8846C62.5449 16.9802 61.7762 15.4685 59.4704 15.4685C57.0876 15.4702 56.1704 16.9733 56.1704 19.3168V19.3236Z" fill="#1877F2"/>
<path d="M86.8233 21.4793C86.8233 26.3507 84.4798 30.0196 79.6494 30.0196C77.0122 30.0196 75.1811 28.701 74.4484 27.0151V29.6524H69.4677V3.4558L74.7422 2.97754V14.6265C75.5108 13.0893 77.1966 11.8424 79.6511 11.8424C84.4867 11.8424 86.825 15.5062 86.825 20.3827L86.8233 21.4793ZM81.5488 20.27C81.5488 17.8155 80.5974 15.9844 78.0695 15.9844C75.9071 15.9844 74.7353 17.5217 74.7353 20.0138V21.8448C74.7353 24.3352 75.9071 25.8741 78.0695 25.8741C80.5974 25.8741 81.5488 24.0431 81.5488 21.5886V20.27Z" fill="#1877F2"/>
<path d="M88.5881 21.3689V20.4909C88.5881 15.4709 91.4457 11.8447 97.2702 11.8447C103.095 11.8447 105.954 15.4709 105.954 20.4909V21.3689C105.954 26.3872 103.096 30.0151 97.2719 30.0151C91.4474 30.0151 88.5881 26.3872 88.5881 21.3689ZM100.678 20.1237C100.678 17.8161 99.7247 15.9851 97.2617 15.9851C94.7987 15.9851 93.8541 17.8161 93.8541 20.1237V21.7361C93.8541 24.0437 94.8072 25.8748 97.2617 25.8748C99.7162 25.8748 100.678 24.0437 100.678 21.7361V20.1237Z" fill="#1877F2"/>
<path d="M107.708 21.3689V20.4909C107.708 15.4709 110.565 11.8447 116.39 11.8447C122.214 11.8447 125.072 15.4709 125.072 20.4909V21.3689C125.072 26.3872 122.214 30.0151 116.39 30.0151C110.565 30.0151 107.708 26.3872 107.708 21.3689ZM119.797 20.1237C119.797 17.8161 118.844 15.9851 116.39 15.9851C113.935 15.9851 112.984 17.8161 112.984 20.1237V21.7361C112.984 24.0437 113.935 25.8748 116.39 25.8748C118.844 25.8748 119.797 24.0437 119.797 21.7361V20.1237Z" fill="#1877F2"/>
<path d="M132.324 20.5262L137.525 12.2113H143.13L137.672 20.82L143.35 29.6472H137.746L132.324 21.1069V29.6472H127.048V3.4558L132.324 2.97754V20.5262Z" fill="#1877F2"/>
</svg>
