<svg width="146" height="33" viewBox="0 0 146 33" fill="none" xmlns="http://www.w3.org/2000/svg">
<path d="M78.876 22.3973C79.8971 24.1692 80.9068 25.9211 81.9158 27.671C77.448 31.0915 70.4969 31.5048 65.3512 27.5658C59.4296 23.0293 58.4563 15.2887 61.6266 9.71671C65.273 3.30769 72.0965 1.8903 76.4899 2.92962C76.3711 3.18774 73.7398 8.64664 73.7398 8.64664C73.7398 8.64664 73.5317 8.6603 73.4141 8.66258C72.1155 8.71762 71.1483 9.01978 70.1116 9.55576C68.9743 10.1492 67.9996 11.0123 67.2728 12.0694C66.5459 13.1266 66.0891 14.3456 65.9422 15.6201C65.7889 16.9126 65.9676 18.2228 66.4615 19.427C66.879 20.4451 67.4697 21.3493 68.2615 22.1126C69.4762 23.2848 70.9217 24.0106 72.5972 24.2509C74.1839 24.4786 75.7098 24.2531 77.1398 23.5346C77.6761 23.2654 78.1324 22.9682 78.6657 22.5605C78.7337 22.5165 78.794 22.4607 78.876 22.3973Z" fill="#FF492C"/>
<path d="M78.886 6.8572C78.6268 6.60211 78.3865 6.36676 78.1473 6.1299C78.0046 5.98869 77.8672 5.84179 77.7211 5.704C77.6687 5.65427 77.6072 5.58633 77.6072 5.58633C77.6072 5.58633 77.6569 5.4808 77.6782 5.43753C77.9579 4.87611 78.3963 4.46577 78.9164 4.13932C79.4915 3.7756 80.1614 3.59053 80.8417 3.60752C81.7121 3.6246 82.5214 3.84135 83.2042 4.42516C83.7083 4.85599 83.9668 5.4026 84.0124 6.05512C84.0883 7.15593 83.6328 7.999 82.7282 8.58737C82.1968 8.93356 81.6236 9.20117 81.0489 9.51813C80.732 9.69312 80.4609 9.84685 80.1512 10.1634C79.8786 10.4811 79.8654 10.7806 79.8654 10.7806L83.9828 10.7753V12.6091H77.6273C77.6273 12.6091 77.6273 12.4839 77.6273 12.4319C77.603 11.5307 77.7081 10.6827 78.1208 9.86431C78.5004 9.11348 79.0902 8.56384 79.7989 8.14059C80.3448 7.81452 80.9195 7.53704 81.4665 7.21249C81.8039 7.01245 82.0423 6.71902 82.0404 6.2935C82.0404 5.92834 81.7747 5.60379 81.3951 5.50244C80.5 5.26102 79.589 5.6463 79.1153 6.46546C79.0462 6.58503 78.9756 6.70384 78.886 6.8572Z" fill="#FF492C"/>
<path d="M86.85 20.4483L83.3801 14.4561H76.5137L73.0215 20.5101H79.9384L83.3517 26.4739L86.85 20.4483Z" fill="#FF492C"/>
</svg>
