<svg width="173" height="33" viewBox="0 0 173 33" fill="none" xmlns="http://www.w3.org/2000/svg">
<g clip-path="url(#clip0_257_994)">
<mask id="mask0_257_994" style="mask-type:luminance" maskUnits="userSpaceOnUse" x="0" y="12" width="173" height="18">
<path d="M173 12.0083H0V29.1623H173V12.0083Z" fill="white"/>
</mask>
<g mask="url(#mask0_257_994)">
<path d="M5.93697 29.15C4.37161 29.15 3.08608 28.8093 2.08035 28.1281C1.08274 27.4387 0.470383 26.4775 0.243286 25.2447L2.45749 24.8919C2.63592 25.6057 3.0455 26.1734 3.68625 26.5952C4.32701 27.0088 5.12182 27.2156 6.07077 27.2156C6.97106 27.2156 7.67668 27.0291 8.18765 26.656C8.69862 26.2829 8.9541 25.776 8.9541 25.1352C8.9541 24.7621 8.86895 24.462 8.69862 24.235C8.52832 23.9998 8.17549 23.7808 7.64018 23.578C7.113 23.3752 6.3141 23.1319 5.24351 22.848C4.08368 22.5398 3.17123 22.2195 2.50616 21.8869C1.84108 21.5544 1.36661 21.1691 1.08274 20.7312C0.798864 20.2932 0.656928 19.7619 0.656928 19.1374C0.656928 18.3669 0.867805 17.6937 1.28956 17.1179C1.71131 16.5339 2.29933 16.0838 3.05363 15.7674C3.81604 15.4511 4.70009 15.293 5.70579 15.293C6.70342 15.293 7.59558 15.4511 8.38233 15.7674C9.16904 16.0838 9.80169 16.5339 10.2802 17.1179C10.7668 17.6937 11.0548 18.3669 11.144 19.1374L8.92979 19.5389C8.82435 18.8333 8.48368 18.2777 7.90785 17.8722C7.34009 17.4666 6.60608 17.2517 5.70579 17.2274C4.85419 17.1949 4.16072 17.345 3.62541 17.6775C3.09823 18.01 2.83464 18.4602 2.83464 19.0279C2.83464 19.3442 2.93195 19.6159 3.12663 19.8431C3.32938 20.0701 3.69841 20.2851 4.23372 20.4878C4.77714 20.6906 5.56385 20.9217 6.59393 21.1813C7.75372 21.4733 8.66617 21.7936 9.33127 22.1424C10.0044 22.4831 10.483 22.8886 10.7668 23.359C11.0507 23.8213 11.1927 24.3931 11.1927 25.0744C11.1927 26.3397 10.7263 27.3373 9.79355 28.0672C8.86085 28.7891 7.57532 29.15 5.93697 29.15Z" fill="#6D778B"/>
<path d="M28.8456 28.7973L28.8578 20.3906C28.8578 19.4092 28.5942 18.6427 28.067 18.0912C27.5479 17.5316 26.8707 17.2518 26.0353 17.2518C25.5486 17.2518 25.0863 17.3653 24.6483 17.5924C24.2104 17.8114 23.8535 18.1602 23.5777 18.6387C23.302 19.1091 23.1641 19.7133 23.1641 20.4514L22.0205 19.9891C22.0043 19.0564 22.1949 18.2413 22.5923 17.5438C22.9978 16.8381 23.5493 16.2906 24.2469 15.9013C24.9444 15.512 25.7311 15.3174 26.6071 15.3174C27.9778 15.3174 29.0565 15.7351 29.8432 16.5705C30.6299 17.3978 31.0233 18.513 31.0233 19.9161L31.0112 28.7973H28.8456ZM13.1272 28.7973V15.658H15.0616V19.174H15.3049V28.7973H13.1272ZM20.9985 28.7973L21.0107 20.4757C21.0107 19.47 20.7512 18.6833 20.2321 18.1155C19.713 17.5397 19.0236 17.2518 18.1639 17.2518C17.3123 17.2518 16.6229 17.5438 16.0957 18.1277C15.5685 18.7117 15.3049 19.4862 15.3049 20.4514L14.1613 19.7701C14.1613 18.9185 14.3641 18.1561 14.7696 17.4829C15.1751 16.8097 15.7266 16.2825 16.4242 15.9013C17.1217 15.512 17.9125 15.3174 18.7965 15.3174C19.6806 15.3174 20.4511 15.5039 21.108 15.877C21.765 16.2501 22.2719 16.7854 22.6288 17.4829C22.9857 18.1723 23.1641 18.9955 23.1641 19.9526L23.1519 28.7973H20.9985Z" fill="#6D778B"/>
<path d="M43.604 16.834C43.8412 16.5079 44.3011 16.4331 44.5996 16.7039C45.4664 17.4901 46.1168 18.4917 46.4811 19.6127C46.8176 20.6482 46.8957 21.7448 46.7172 22.8091V28.4328L44.4036 26.8552C44.2835 26.9559 44.1605 27.0536 44.0332 27.1461C42.882 27.9824 41.4955 28.4328 40.0728 28.4328C38.6497 28.4328 37.2632 27.9824 36.112 27.1461C34.961 26.3097 34.1042 25.1304 33.6645 23.7772C33.2248 22.4239 33.2248 20.966 33.6645 19.6127C34.0287 18.4917 34.6792 17.4901 35.5461 16.7039C35.8445 16.4331 36.3044 16.508 36.5412 16.834L37.2124 17.7579C37.3705 17.9753 37.3201 18.2778 37.1216 18.4589C36.5624 18.9687 36.1431 19.6168 35.9076 20.3416C35.6217 21.2212 35.6217 22.1687 35.9076 23.0483C36.1934 23.9279 36.7504 24.6945 37.4986 25.2382C38.2468 25.7817 39.1479 26.0747 40.0728 26.0747C40.9976 26.0747 41.8988 25.7818 42.647 25.2382C43.3952 24.6945 43.9525 23.9279 44.2383 23.0483C44.5241 22.1687 44.5241 21.2212 44.2383 20.3416C44.0029 19.6169 43.5832 18.9687 43.0244 18.4589C42.8258 18.2779 42.7751 17.9753 42.9331 17.7579L43.604 16.834Z" fill="#22B2FF"/>
<path d="M40.466 13.833C40.8693 13.8331 41.1959 14.1599 41.1959 14.563V19.8413C41.1959 19.8435 41.1955 19.8458 41.1955 19.848V21.0577C41.1955 21.4609 40.8689 21.7877 40.4656 21.7877H39.6798C39.2765 21.7877 38.9498 21.4609 38.9498 21.0577V14.563C38.9498 14.1598 39.2765 13.833 39.6798 13.833H40.466Z" fill="#22B2FF"/>
<path d="M49.637 28.7974V15.6582H51.5714V18.8335L51.2549 18.4199C51.4093 18.0143 51.6078 17.6412 51.8513 17.3006C52.1028 16.96 52.3823 16.6801 52.6907 16.4611C53.0313 16.1854 53.4167 15.9745 53.8463 15.8285C54.2762 15.6825 54.7142 15.5973 55.1602 15.573C55.6066 15.5406 56.0241 15.569 56.4135 15.6582V17.6899C55.9591 17.5682 55.4606 17.5358 54.9171 17.5926C54.3737 17.6494 53.8707 17.8481 53.4083 18.1887C52.9867 18.4888 52.6583 18.8538 52.4228 19.2836C52.1958 19.7135 52.0378 20.1799 51.9484 20.6827C51.8593 21.1775 51.8148 21.6844 51.8148 22.2035V28.7974H49.637Z" fill="#6D778B"/>
<path d="M66.7061 28.7973C65.9273 28.9514 65.1568 29.0123 64.3944 28.9798C63.6403 28.9555 62.9669 28.8054 62.3749 28.5297C61.7829 28.2458 61.3326 27.8078 61.0245 27.2158C60.765 26.6967 60.623 26.1735 60.5986 25.6464C60.5825 25.111 60.5745 24.5068 60.5745 23.8336V12.0083H62.7399V23.7363C62.7399 24.2716 62.7439 24.7299 62.752 25.111C62.7684 25.4922 62.8534 25.8207 63.0074 26.0965C63.2994 26.6156 63.7619 26.9197 64.3944 27.0089C65.0353 27.0981 65.8057 27.0738 66.7061 26.9359V28.7973ZM57.9102 17.4465V15.6581H66.7061V17.4465H57.9102Z" fill="#6D778B"/>
<path d="M75.1247 29.1623C73.7947 29.1623 72.6633 28.8663 71.7304 28.2742C70.8059 27.674 70.1004 26.8508 69.6135 25.8045C69.127 24.7582 68.8756 23.566 68.8595 22.2277C68.8756 20.857 69.131 19.6526 69.6259 18.6144C70.1285 17.5681 70.8464 16.753 71.7793 16.1691C72.7118 15.5851 73.8352 15.2931 75.1492 15.2931C76.5361 15.2931 77.7285 15.6337 78.726 16.3151C79.7318 16.9964 80.4049 17.9291 80.7454 19.1132L78.6044 19.758C78.3285 18.9956 77.8785 18.4035 77.254 17.9818C76.6376 17.56 75.9277 17.3491 75.1247 17.3491C74.2247 17.3491 73.4823 17.56 72.8984 17.9818C72.3144 18.3954 71.8804 18.9713 71.5968 19.7094C71.3129 20.4393 71.1669 21.2788 71.1589 22.2277C71.1749 23.6876 71.5114 24.8677 72.1684 25.768C72.8338 26.6602 73.8192 27.1063 75.1247 27.1063C75.9846 27.1063 76.6981 26.9116 77.2661 26.5223C77.834 26.1249 78.2635 25.5531 78.5555 24.8069L80.7454 25.3787C80.2914 26.6034 79.5815 27.5402 78.6165 28.189C77.6515 28.8379 76.4876 29.1623 75.1247 29.1623ZM87.6081 29.138C86.7646 29.138 86.0387 29.0042 85.4306 28.7365C84.8302 28.4689 84.3317 28.112 83.9342 27.6659C83.5368 27.2198 83.2243 26.7251 82.9973 26.1816C82.7703 25.6382 82.6079 25.0826 82.5108 24.5149C82.4214 23.9472 82.3769 23.4159 82.3769 22.9212V15.6581H84.5667V22.2399C84.5667 22.8563 84.6237 23.4524 84.7372 24.0283C84.8507 24.6041 85.0412 25.1232 85.3087 25.5855C85.5847 26.0478 85.9496 26.4128 86.4037 26.6805C86.8661 26.9481 87.442 27.0819 88.1315 27.0819C88.6749 27.0819 89.1695 26.9886 89.6155 26.8021C90.0618 26.6156 90.4429 26.3398 90.7593 25.9748C91.0754 25.6017 91.3188 25.1313 91.4893 24.5636C91.6594 23.9958 91.7448 23.3348 91.7448 22.5805L93.1682 23.0185C93.1682 24.2837 92.9368 25.3746 92.4747 26.2911C92.0203 27.2076 91.3758 27.9133 90.5403 28.408C89.7129 28.8947 88.7355 29.138 87.6081 29.138ZM91.9878 28.7973V25.2814H91.7448V15.6581H93.9222V28.7973H91.9878ZM101.684 29.1502C100.119 29.1502 98.833 28.8095 97.8275 28.1282C96.83 27.4388 96.2176 26.4777 95.9906 25.2449L98.2045 24.8921C98.383 25.6058 98.7925 26.1735 99.4334 26.5953C100.074 27.0089 100.869 27.2158 101.818 27.2158C102.718 27.2158 103.424 27.0292 103.935 26.6561C104.446 26.283 104.701 25.7761 104.701 25.1354C104.701 24.7623 104.616 24.4622 104.446 24.2351C104.276 23.9999 103.923 23.7809 103.387 23.5781C102.86 23.3754 102.061 23.1321 100.991 22.8482C99.8309 22.54 98.9184 22.2196 98.2534 21.8871C97.5881 21.5545 97.1136 21.1693 96.83 20.7313C96.5461 20.2933 96.4041 19.7621 96.4041 19.1375C96.4041 18.367 96.615 17.6939 97.0366 17.118C97.4585 16.534 98.0465 16.0839 98.8009 15.7676C99.563 15.4513 100.447 15.2931 101.453 15.2931C102.451 15.2931 103.343 15.4513 104.13 15.7676C104.916 16.0839 105.549 16.534 106.027 17.118C106.514 17.6939 106.802 18.367 106.891 19.1375L104.677 19.539C104.572 18.8334 104.231 18.2778 103.655 17.8723C103.087 17.4668 102.353 17.2518 101.453 17.2275C100.601 17.1951 99.9079 17.3451 99.3725 17.6776C98.8454 18.0102 98.5819 18.4603 98.5819 19.028C98.5819 19.3444 98.679 19.6161 98.8739 19.8432C99.0765 20.0703 99.4455 20.2852 99.9809 20.488C100.524 20.6907 101.311 20.9219 102.341 21.1814C103.501 21.4734 104.413 21.7938 105.079 22.1426C105.752 22.4832 106.23 22.8887 106.514 23.3591C106.798 23.8215 106.94 24.3932 106.94 25.0745C106.94 26.3398 106.473 27.3374 105.541 28.0674C104.608 28.7892 103.322 29.1502 101.684 29.1502ZM116.351 28.7973C115.572 28.9514 114.802 29.0123 114.039 28.9798C113.285 28.9555 112.612 28.8054 112.02 28.5297C111.428 28.2458 110.977 27.8078 110.669 27.2158C110.41 26.6967 110.268 26.1735 110.243 25.6464C110.227 25.111 110.219 24.5068 110.219 23.8336V12.0083H112.385V23.7363C112.385 24.2716 112.389 24.7299 112.397 25.111C112.413 25.4922 112.498 25.8207 112.652 26.0965C112.944 26.6156 113.407 26.9197 114.039 27.0089C114.68 27.0981 115.451 27.0738 116.351 26.9359V28.7973ZM107.555 17.4465V15.6581H116.351V17.4465H107.555ZM123.46 29.1623C122.154 29.1623 121.027 28.8663 120.078 28.2742C119.137 27.6821 118.411 26.8629 117.9 25.8167C117.389 24.7704 117.133 23.57 117.133 22.2156C117.133 20.8367 117.393 19.6283 117.912 18.5901C118.431 17.5519 119.165 16.7449 120.114 16.1691C121.063 15.5851 122.179 15.2931 123.46 15.2931C124.774 15.2931 125.905 15.5891 126.854 16.1812C127.803 16.7652 128.529 17.5803 129.032 18.6266C129.543 19.6648 129.798 20.8611 129.798 22.2156C129.798 23.5862 129.543 24.7947 129.032 25.841C128.521 26.8791 127.791 27.6943 126.842 28.2864C125.893 28.8703 124.766 29.1623 123.46 29.1623ZM123.46 27.1063C124.822 27.1063 125.836 26.6521 126.501 25.7437C127.166 24.8353 127.499 23.6592 127.499 22.2156C127.499 20.7313 127.162 19.5512 126.489 18.6753C125.816 17.7912 124.806 17.3491 123.46 17.3491C122.544 17.3491 121.789 17.556 121.197 17.9696C120.605 18.3833 120.163 18.9551 119.871 19.685C119.579 20.415 119.433 21.2585 119.433 22.2156C119.433 23.6917 119.774 24.8759 120.455 25.768C121.136 26.6602 122.138 27.1063 123.46 27.1063ZM147.575 28.7973L147.587 20.3907C147.587 19.4093 147.323 18.6428 146.796 18.0913C146.277 17.5316 145.6 17.2518 144.765 17.2518C144.278 17.2518 143.816 17.3654 143.378 17.5925C142.94 17.8115 142.583 18.1602 142.307 18.6388C142.031 19.1092 141.893 19.7134 141.893 20.4515L140.75 19.9892C140.734 19.0564 140.924 18.2413 141.322 17.5438C141.727 16.8382 142.279 16.2907 142.976 15.9014C143.674 15.5121 144.46 15.3175 145.336 15.3175C146.707 15.3175 147.786 15.7351 148.572 16.5705C149.359 17.3978 149.753 18.513 149.753 19.9162L149.74 28.7973H147.575ZM131.856 28.7973V15.6581H133.791V19.174H134.034V28.7973H131.856ZM139.728 28.7973L139.74 20.4758C139.74 19.4701 139.48 18.6834 138.961 18.1156C138.442 17.5398 137.753 17.2518 136.893 17.2518C136.042 17.2518 135.352 17.5438 134.825 18.1278C134.298 18.7118 134.034 19.4863 134.034 20.4515L132.891 19.7702C132.891 18.9186 133.093 18.1562 133.499 17.483C133.904 16.8098 134.456 16.2826 135.154 15.9014C135.851 15.5121 136.642 15.3175 137.526 15.3175C138.41 15.3175 139.18 15.504 139.837 15.8771C140.494 16.2502 141.001 16.7855 141.358 17.483C141.715 18.1724 141.893 18.9956 141.893 19.9527L141.881 28.7973H139.728ZM157.888 29.1623C156.598 29.1623 155.471 28.8784 154.506 28.3107C153.549 27.7348 152.802 26.9359 152.267 25.914C151.732 24.884 151.464 23.6836 151.464 22.3129C151.464 20.8773 151.728 19.6364 152.255 18.5901C152.782 17.5357 153.516 16.7246 154.457 16.1569C155.406 15.581 156.517 15.2931 157.791 15.2931C159.113 15.2931 160.236 15.5972 161.16 16.2056C162.093 16.8139 162.791 17.6817 163.253 18.8091C163.724 19.9364 163.926 21.2788 163.861 22.836H161.671V22.0574C161.647 20.4434 161.319 19.2389 160.686 18.4441C160.053 17.6411 159.113 17.2397 157.864 17.2397C156.525 17.2397 155.508 17.6695 154.81 18.5293C154.112 19.389 153.764 20.6218 153.764 22.2277C153.764 23.7768 154.112 24.9772 154.81 25.8288C155.508 26.6805 156.501 27.1063 157.791 27.1063C158.659 27.1063 159.413 26.9075 160.053 26.5101C160.694 26.1127 161.197 25.5409 161.562 24.7947L163.642 25.5125C163.131 26.6724 162.361 27.5726 161.331 28.2134C160.309 28.846 159.161 29.1623 157.888 29.1623ZM153.034 22.836V21.0963H162.742V22.836H153.034ZM165.962 28.7973V15.6581H167.896V18.8334L167.58 18.4198C167.734 18.0142 167.933 17.6411 168.176 17.3005C168.428 16.9599 168.707 16.68 169.016 16.461C169.356 16.1853 169.741 15.9744 170.171 15.8284C170.601 15.6824 171.039 15.5972 171.485 15.5729C171.931 15.5405 172.349 15.5689 172.738 15.6581V17.6898C172.284 17.5681 171.785 17.5357 171.242 17.5925C170.698 17.6493 170.196 17.848 169.733 18.1886C169.312 18.4887 168.983 18.8537 168.748 19.2835C168.521 19.7134 168.363 20.1798 168.273 20.6826C168.184 21.1774 168.14 21.6843 168.14 22.2034V28.7973H165.962Z" fill="#061934"/>
</g>
</g>
<defs>
<clipPath id="clip0_257_994">
<rect width="173" height="17.154" fill="white" transform="translate(0 12.0083)"/>
</clipPath>
</defs>
</svg>
