<svg width="146" height="33" viewBox="0 0 146 33" fill="none" xmlns="http://www.w3.org/2000/svg">
<path d="M40.5495 12.6851H27.541L23.5366 0.316406L19.5085 12.6851L6.5 12.6614L17.0205 20.3149L12.9924 32.6836L23.5129 25.0302L34.0334 32.6836L30.029 20.3149L40.5495 12.6851Z" fill="#00B67A"/>
<path d="M30.9309 23.1114L30.0305 20.3154L23.5381 25.0307L30.9309 23.1114Z" fill="#005128"/>
<path d="M46.5646 12.563H59.407V14.9537H54.3504V28.4308H51.5788V14.9537H46.5435L46.5646 12.563ZM58.8569 16.9425H61.2265V19.164H61.2688C61.3534 18.8466 61.5015 18.5504 61.7131 18.2542C61.9246 17.958 62.1785 17.683 62.4959 17.4503C62.7921 17.1964 63.1306 17.006 63.5114 16.8579C63.8711 16.7098 64.2519 16.6251 64.6327 16.6251C64.9289 16.6251 65.1405 16.6463 65.2463 16.6463C65.3521 16.6675 65.479 16.6886 65.5848 16.6886V19.1217C65.4156 19.0794 65.2251 19.0582 65.0347 19.0371C64.8443 19.0159 64.6751 18.9947 64.4846 18.9947C64.0615 18.9947 63.6595 19.0794 63.2787 19.2486C62.8979 19.4179 62.5805 19.6718 62.2843 19.9891C62.0093 20.3276 61.7765 20.7296 61.6073 21.2162C61.438 21.7028 61.3534 22.2741 61.3534 22.9088V28.3673H58.8146L58.8569 16.9425ZM77.2212 28.4308H74.7247V26.8229H74.6824C74.365 27.4152 73.8995 27.8595 73.286 28.2192C72.6724 28.5789 72.0377 28.7481 71.403 28.7481C69.9009 28.7481 68.8007 28.3885 68.1237 27.6268C67.4466 26.8863 67.1081 25.7438 67.1081 24.2417V16.9425H69.647V23.9878C69.647 25.0033 69.8374 25.7227 70.2394 26.1247C70.6202 26.5478 71.1703 26.7594 71.8685 26.7594C72.3974 26.7594 72.8417 26.6748 73.2014 26.5055C73.561 26.3362 73.8572 26.1247 74.0688 25.8496C74.3015 25.5746 74.4496 25.2361 74.5554 24.8552C74.6612 24.4744 74.7035 24.0513 74.7035 23.607V16.9425H77.2424V28.4308H77.2212ZM81.5372 24.7495C81.6219 25.49 81.8969 25.9977 82.3835 26.3151C82.8701 26.6113 83.4625 26.7594 84.1396 26.7594C84.3723 26.7594 84.6473 26.7382 84.9435 26.6959C85.2397 26.6536 85.5359 26.5901 85.7898 26.4843C86.0649 26.3786 86.2764 26.2305 86.4457 26.0189C86.6149 25.8073 86.6996 25.5534 86.6784 25.2361C86.6572 24.9187 86.5515 24.6437 86.3187 24.4321C86.086 24.2205 85.811 24.0724 85.4725 23.9243C85.1339 23.7974 84.732 23.6916 84.2877 23.607C83.8434 23.5223 83.3991 23.4166 82.9336 23.3108C82.4682 23.205 82.0027 23.078 81.5584 22.9299C81.1141 22.7819 80.7333 22.5914 80.3736 22.3164C80.0351 22.0625 79.7389 21.7452 79.5485 21.3432C79.3369 20.9412 79.2311 20.4757 79.2311 19.8833C79.2311 19.2486 79.3792 18.7409 79.6966 18.3177C79.9928 17.8946 80.3948 17.5561 80.8602 17.3022C81.3257 17.0483 81.8546 16.8579 82.4258 16.7521C82.9971 16.6463 83.5472 16.604 84.0549 16.604C84.6473 16.604 85.2186 16.6675 85.7475 16.7944C86.2764 16.9213 86.7842 17.1118 87.2073 17.408C87.6516 17.683 88.0113 18.0638 88.2863 18.5081C88.5825 18.9524 88.7518 19.5025 88.8364 20.1372H86.1918C86.0649 19.5237 85.7898 19.1217 85.3667 18.9101C84.9224 18.6985 84.4358 18.5928 83.8645 18.5928C83.6953 18.5928 83.4625 18.6139 83.2298 18.6351C82.9759 18.6774 82.7644 18.7197 82.5316 18.8043C82.3201 18.889 82.1296 19.0159 81.9815 19.164C81.8334 19.3121 81.7488 19.5237 81.7488 19.7775C81.7488 20.0949 81.8546 20.3276 82.0662 20.518C82.2777 20.7085 82.5528 20.8566 82.9125 21.0047C83.251 21.1316 83.653 21.2374 84.0973 21.322C84.5415 21.4066 85.007 21.5124 85.4725 21.6182C85.9379 21.724 86.3822 21.8509 86.8265 21.999C87.2708 22.1471 87.6728 22.3376 88.0113 22.6126C88.3498 22.8665 88.646 23.1838 88.8576 23.5647C89.0692 23.9455 89.1749 24.4321 89.1749 24.9822C89.1749 25.6592 89.0268 26.2305 88.7095 26.7171C88.3921 27.1825 87.9902 27.5845 87.5035 27.8807C87.0169 28.1769 86.4457 28.3885 85.8533 28.5366C85.2397 28.6635 84.6473 28.7481 84.0549 28.7481C83.3356 28.7481 82.6586 28.6635 82.045 28.4943C81.4315 28.325 80.8814 28.0711 80.4371 27.7538C79.9928 27.4152 79.6331 27.0133 79.3792 26.5055C79.1253 26.0189 78.9772 25.4265 78.9561 24.7283H81.5161V24.7495H81.5372ZM89.8943 16.9425H91.8196V13.4727H94.3584V16.9213H96.6434V18.8043H94.3584V24.9399C94.3584 25.2149 94.3796 25.4265 94.4007 25.6381C94.4219 25.8285 94.4854 25.9977 94.5488 26.1247C94.6335 26.2516 94.7604 26.3574 94.9085 26.4209C95.0778 26.4843 95.2893 26.5267 95.5855 26.5267C95.7548 26.5267 95.9452 26.5267 96.1145 26.5055C96.2837 26.4843 96.4741 26.4632 96.6434 26.4209V28.3885C96.3683 28.4308 96.0933 28.4519 95.8183 28.4731C95.5432 28.5154 95.2893 28.5154 94.9931 28.5154C94.3161 28.5154 93.7872 28.4519 93.3852 28.325C92.9832 28.1981 92.6659 28.0076 92.4331 27.7749C92.2004 27.521 92.0523 27.2248 91.9677 26.8652C91.883 26.5055 91.8407 26.0612 91.8196 25.5957V18.8255H89.8943V16.9002V16.9425ZM98.4206 16.9425H100.811V18.5081H100.854C101.213 17.8311 101.7 17.3656 102.335 17.0694C102.969 16.7732 103.646 16.6251 104.408 16.6251C105.318 16.6251 106.101 16.7732 106.778 17.1118C107.455 17.4291 108.005 17.8523 108.449 18.4235C108.893 18.9736 109.232 19.6294 109.443 20.3699C109.655 21.1104 109.782 21.9144 109.782 22.7395C109.782 23.5223 109.676 24.2628 109.486 24.9822C109.274 25.7015 108.978 26.3574 108.576 26.9075C108.174 27.4576 107.666 27.9019 107.032 28.2404C106.397 28.5789 105.677 28.7481 104.831 28.7481C104.472 28.7481 104.091 28.7058 103.731 28.6424C103.371 28.5789 103.012 28.4731 102.673 28.325C102.335 28.1769 102.017 27.9865 101.742 27.7538C101.446 27.521 101.213 27.246 101.023 26.9498H100.981V32.6834H98.4417V16.9425H98.4206ZM107.285 22.6972C107.285 22.1895 107.222 21.6817 107.074 21.1951C106.947 20.7085 106.735 20.2853 106.46 19.9045C106.185 19.5237 105.847 19.2275 105.466 18.9947C105.064 18.762 104.598 18.6562 104.091 18.6562C103.033 18.6562 102.229 19.0159 101.679 19.7564C101.15 20.4969 100.875 21.4913 100.875 22.7184C100.875 23.3108 100.938 23.8397 101.086 24.3263C101.234 24.8129 101.425 25.2361 101.721 25.5957C101.996 25.9554 102.335 26.2305 102.737 26.442C103.139 26.6536 103.583 26.7594 104.112 26.7594C104.704 26.7594 105.17 26.6324 105.572 26.3997C105.974 26.167 106.291 25.8496 106.566 25.49C106.82 25.1091 107.01 24.686 107.116 24.1994C107.222 23.6916 107.285 23.205 107.285 22.6972ZM111.75 12.563H114.288V14.9537H111.75V12.563ZM111.75 16.9425H114.288V28.4308H111.75V16.9425ZM116.552 12.563H119.091V28.4308H116.552V12.563ZM126.835 28.7481C125.925 28.7481 125.1 28.6 124.38 28.2827C123.661 27.9653 123.069 27.5633 122.561 27.0344C122.074 26.5055 121.693 25.8496 121.439 25.1091C121.186 24.3686 121.037 23.5435 121.037 22.6761C121.037 21.8086 121.164 21.0047 121.439 20.2642C121.693 19.5237 122.074 18.889 122.561 18.3389C123.047 17.8099 123.661 17.3868 124.38 17.0906C125.1 16.7944 125.925 16.6251 126.835 16.6251C127.744 16.6251 128.569 16.7732 129.289 17.0906C130.008 17.3868 130.6 17.8099 131.108 18.3389C131.595 18.8678 131.976 19.5237 132.23 20.2642C132.483 21.0047 132.632 21.8086 132.632 22.6761C132.632 23.5647 132.505 24.3686 132.23 25.1091C131.955 25.8496 131.595 26.4843 131.108 27.0344C130.622 27.5633 130.008 27.9865 129.289 28.2827C128.569 28.5789 127.765 28.7481 126.835 28.7481ZM126.835 26.7382C127.385 26.7382 127.892 26.6113 128.294 26.3786C128.717 26.1458 129.035 25.8285 129.31 25.4476C129.585 25.0668 129.775 24.6225 129.902 24.1571C130.029 23.6704 130.093 23.1838 130.093 22.6761C130.093 22.1895 130.029 21.7028 129.902 21.2162C129.775 20.7296 129.585 20.3065 129.31 19.9256C129.035 19.5448 128.696 19.2486 128.294 19.0159C127.871 18.7832 127.385 18.6562 126.835 18.6562C126.284 18.6562 125.777 18.7832 125.375 19.0159C124.952 19.2486 124.634 19.566 124.359 19.9256C124.084 20.3065 123.894 20.7296 123.767 21.2162C123.64 21.7028 123.576 22.1895 123.576 22.6761C123.576 23.1838 123.64 23.6704 123.767 24.1571C123.894 24.6437 124.084 25.0668 124.359 25.4476C124.634 25.8285 124.973 26.1458 125.375 26.3786C125.798 26.6324 126.284 26.7382 126.835 26.7382ZM133.393 16.9425H135.319V13.4727H137.857V16.9213H140.142V18.8043H137.857V24.9399C137.857 25.2149 137.879 25.4265 137.9 25.6381C137.921 25.8285 137.984 25.9977 138.048 26.1247C138.132 26.2516 138.259 26.3574 138.407 26.4209C138.577 26.4843 138.788 26.5267 139.084 26.5267C139.254 26.5267 139.444 26.5267 139.613 26.5055C139.783 26.4843 139.973 26.4632 140.142 26.4209V28.3885C139.867 28.4308 139.592 28.4519 139.317 28.4731C139.042 28.5154 138.788 28.5154 138.492 28.5154C137.815 28.5154 137.286 28.4519 136.884 28.325C136.482 28.1981 136.165 28.0076 135.932 27.7749C135.699 27.521 135.551 27.2248 135.467 26.8652C135.382 26.5055 135.34 26.0612 135.319 25.5957V18.8255H133.393V16.9002V16.9425Z" fill="#1A1E25"/>
</svg>
