<svg width="155" height="36" viewBox="0 0 155 36" fill="none" xmlns="http://www.w3.org/2000/svg">
<path fill-rule="evenodd" clip-rule="evenodd" d="M140.021 15.9524C123.114 28.6818 98.5228 35.463 77.3127 35.463C47.598 35.463 20.9575 24.2992 0.669591 5.72793C-0.867349 4.2677 0.464766 2.28495 2.41135 3.4325C24.2362 16.3698 51.1844 24.0906 79.0544 24.0906C97.8054 24.0906 118.503 20.1261 137.561 11.8834C140.429 10.7359 142.787 13.8658 140.02 15.9524H140.021Z" fill="white"/>
<path fill-rule="evenodd" clip-rule="evenodd" d="M147.094 7.71056C144.943 4.89359 132.749 6.35413 127.319 7.08456C125.679 7.29312 125.372 5.83258 126.909 4.78915C136.643 -2.20122 152.525 -0.11468 154.369 2.18074C156.214 4.47615 153.857 20.751 144.736 28.4728C143.302 29.6203 141.97 28.9943 142.585 27.4294C144.635 22.2125 149.246 10.631 147.094 7.71056Z" fill="white"/>
</svg>
